<svg width="30" height="31" viewBox="0 0 30 31" fill="none" xmlns="http://www.w3.org/2000/svg">
<path d="M15.9375 15.7798C15.9375 16.2975 15.5178 16.7173 15 16.7173C14.4822 16.7173 14.0625 16.2975 14.0625 15.7798C14.0625 15.262 14.4822 14.8423 15 14.8423C15.5178 14.8423 15.9375 15.262 15.9375 15.7798Z" fill="#FAFCFF"/>
<path d="M15.9375 15.7798C15.9375 16.2975 15.5178 16.7173 15 16.7173C14.4822 16.7173 14.0625 16.2975 14.0625 15.7798C14.0625 15.262 14.4822 14.8423 15 14.8423M15.9375 15.7798C15.9375 15.262 15.5178 14.8423 15 14.8423M15.9375 15.7798H20.625M15 14.8423V8.90479M26.25 15.7798C26.25 21.993 21.2133 27.0298 15 27.0298C8.7868 27.0298 3.75 21.993 3.75 15.7798C3.75 9.56659 8.7868 4.52979 15 4.52979C21.2133 4.52979 26.25 9.56659 26.25 15.7798Z" stroke="#FAFCFF" stroke-width="1.875" stroke-linecap="round" stroke-linejoin="round"/>
</svg>
