<svg width="30" height="31" viewBox="0 0 30 31" fill="none" xmlns="http://www.w3.org/2000/svg">
<path d="M3.75 12.6537L10.125 17.6118C12.1983 19.2242 13.2349 20.0304 14.4189 20.1879C14.8049 20.2392 15.1961 20.2392 15.5821 20.1878C16.7661 20.0303 17.8027 19.2241 19.8759 17.6116L26.25 12.6537M10.125 7.0706L6.8159 9.64425C5.48033 10.683 4.81254 11.2023 4.39113 11.8961C4.25211 12.125 4.13422 12.366 4.03892 12.6162C3.75 13.3748 3.75 14.2208 3.75 15.9128V19.0875C3.75 22.3961 3.75 24.0504 4.59258 25.2101C4.86469 25.5847 5.19406 25.914 5.56859 26.1862C6.72829 27.0287 8.38259 27.0287 11.6912 27.0287H18.3088C21.6174 27.0287 23.2717 27.0287 24.4314 26.1862C24.8059 25.914 25.1353 25.5847 25.4074 25.2101C26.25 24.0504 26.25 22.3961 26.25 19.0875V15.9125C26.25 14.2207 26.25 13.3747 25.9611 12.6162C25.8658 12.366 25.7479 12.1249 25.609 11.8961C25.1876 11.2023 24.5198 10.683 23.1844 9.64425L19.8759 7.07082C17.8027 5.45831 16.7661 4.65206 15.5821 4.49457C15.1961 4.44323 14.8049 4.44322 14.4189 4.49454C13.2349 4.65198 12.1983 5.45819 10.125 7.0706Z" stroke="#FAFCFF" stroke-width="1.32353" stroke-linejoin="round"/>
<path d="M3.75 12.6537L10.125 17.6118C12.1983 19.2242 13.2349 20.0304 14.4189 20.1879C14.8049 20.2392 15.1961 20.2392 15.5821 20.1878C16.7661 20.0303 17.8027 19.2241 19.8759 17.6116L26.25 12.6537M10.125 7.0706L6.8159 9.64425C5.48033 10.683 4.81254 11.2023 4.39113 11.8961C4.25211 12.125 4.13422 12.366 4.03892 12.6162C3.75 13.3748 3.75 14.2208 3.75 15.9128V19.0875C3.75 22.3961 3.75 24.0504 4.59258 25.2101C4.86469 25.5847 5.19406 25.914 5.56859 26.1862C6.72829 27.0287 8.38259 27.0287 11.6912 27.0287H18.3088C21.6174 27.0287 23.2717 27.0287 24.4314 26.1862C24.8059 25.914 25.1353 25.5847 25.4074 25.2101C26.25 24.0504 26.25 22.3961 26.25 19.0875V15.9125C26.25 14.2207 26.25 13.3747 25.9611 12.6162C25.8658 12.366 25.7479 12.1249 25.609 11.8961C25.1876 11.2023 24.5198 10.683 23.1844 9.64425L19.8759 7.07082C17.8027 5.45831 16.7661 4.65206 15.5821 4.49457C15.1961 4.44323 14.8049 4.44322 14.4189 4.49454C13.2349 4.65198 12.1983 5.45819 10.125 7.0706Z" stroke="#FAFCFF" stroke-width="1.32353" stroke-linejoin="round"/>
</svg>
