<svg width="30" height="31" viewBox="0 0 30 31" fill="none" xmlns="http://www.w3.org/2000/svg">
<g id="Component 1" clip-path="url(#clip0_1194_6497)">
<path id="Vector" d="M9.90698 22.8995C7.19348 22.95 5 25.1695 5 27.895V29.395C5 30.222 5.673 30.895 6.5 30.895H23.5C24.327 30.895 25 30.222 25 29.395V27.895C25 25.169 22.806 22.949 20.0915 22.8995C19.9205 22.838 18.9625 22.422 18.1445 20.6755C18.401 20.4835 18.636 20.2805 18.8485 20.067C19.439 20.2805 20.1555 20.395 21 20.395C22.6025 20.395 23.4915 19.8225 23.9525 19.3445C24.163 19.1295 24.267 18.8335 24.2375 18.532C24.208 18.2235 24.0445 17.945 23.783 17.7645C23.402 17.5095 22.5145 16.5785 22.495 13.45V13.301C22.499 11.6875 22.5 10.368 22.5 10.0005L24.3645 5.79352C24.6235 5.27502 24.502 4.64802 24.0695 4.26802C22.6325 3.00902 19.543 0.89502 15 0.89502C10.457 0.89502 7.36748 3.00902 5.9295 4.26852C5.4975 4.64852 5.3765 5.27552 5.6255 5.77352L7.50002 10.001C7.50002 10.369 7.50098 11.6875 7.505 13.3V13.4475C7.4855 16.579 6.59798 17.51 6.21098 17.7695C5.955 17.946 5.7915 18.224 5.7625 18.5325C5.733 18.834 5.837 19.13 6.04502 19.3425C6.50852 19.823 7.39748 20.395 9.00002 20.395C9.84452 20.395 10.5605 20.2805 11.151 20.067C11.3635 20.2805 11.5985 20.484 11.855 20.6755C11.0405 22.4125 10.0735 22.8375 9.90698 22.8995ZM24 27.895V29.395C24 29.671 23.776 29.895 23.5 29.895H6.5C6.224 29.895 6.00002 29.671 6.00002 29.395V27.895C6.00002 25.785 7.643 24.056 9.71648 23.9095C10.202 24.7195 11.8015 27.0015 14.863 27.876C14.908 27.8885 14.954 27.895 15 27.895C15.046 27.895 15.0925 27.8885 15.137 27.876C18.1985 27.0015 19.798 24.7195 20.2835 23.9095C22.357 24.056 24 25.785 24 27.895ZM19.289 23.608C18.75 24.4205 17.37 26.1465 15 26.8735C12.6295 26.1465 11.2495 24.42 10.711 23.608C11.2385 23.285 12.028 22.6 12.703 21.2145C13.088 21.419 13.509 21.6 13.9785 21.743C14.3125 21.8455 14.656 21.897 15 21.897C15.344 21.897 15.687 21.8455 16.021 21.743C16.491 21.6 16.9115 21.419 17.297 21.2145C17.972 22.6 18.761 23.285 19.289 23.608ZM23.2265 18.596L23.505 18.1805L23.2355 18.6485C22.907 18.9895 22.2515 19.3955 21 19.3955C20.4495 19.3955 19.964 19.3375 19.548 19.2355C20.599 17.756 20.8925 16.11 20.9705 15.339C21.1915 15.285 21.4 15.1895 21.591 15.065C21.8505 17.21 22.5895 18.169 23.2265 18.596ZM8.50148 11.6915C8.50052 11.03 8.49998 10.505 8.49998 10.197C9.212 9.84804 11.4765 8.895 15 8.895C15.148 8.895 15.288 8.90052 15.4315 8.904C14.6805 9.95304 13.029 11.3725 9.57698 11.395C9.18302 11.3975 8.816 11.5075 8.50148 11.6915ZM21.498 11.696C21.1805 11.5075 20.811 11.395 20.4195 11.395C18.3175 11.395 17.5015 10.106 17.1855 9.02304C19.466 9.29502 20.949 9.927 21.4995 10.197C21.4995 10.5055 21.499 11.032 21.498 11.696ZM6.58952 5.02052C7.92098 3.85302 10.785 1.89502 15 1.89502C19.215 1.89502 22.079 3.85302 23.41 5.02052C23.502 5.10052 23.526 5.23502 23.4605 5.36802L21.7575 9.20904C20.796 8.76204 18.482 7.89504 15 7.89504C11.518 7.89504 9.20348 8.76204 8.24252 9.20904L6.52952 5.34752C6.47348 5.23452 6.4985 5.10052 6.58952 5.02052ZM6.76502 18.648L6.77402 18.596C7.4105 18.1695 8.15 17.21 8.4095 15.0645C8.60048 15.189 8.8085 15.2845 9.03002 15.3385C9.10802 16.1095 9.40148 17.7555 10.4525 19.235C10.037 19.337 9.55148 19.395 9.0005 19.395C7.74902 19.395 7.094 18.989 6.76502 18.648ZM10.0005 14.894C9.9995 14.6185 9.776 14.395 9.50048 14.395C9.22202 14.395 8.96402 14.283 8.77298 14.08C8.588 13.8835 8.49548 13.627 8.5055 13.354V13.3215C8.53748 12.8135 9.01952 12.398 9.584 12.3945C13.495 12.369 15.399 10.6885 16.272 9.45C16.685 10.7285 17.739 12.3945 20.4205 12.3945C20.983 12.3945 21.463 12.81 21.4955 13.3245V13.3565C21.5055 13.6265 21.413 13.8825 21.228 14.0795C21.037 14.2825 20.779 14.3945 20.5005 14.3945C20.225 14.3945 20.0015 14.618 20.0005 14.8935C20.0005 15.081 19.935 19.5045 15.729 20.7865C15.253 20.9335 14.7495 20.9335 14.2715 20.7865C10.066 19.5045 10.001 15.0815 10.0005 14.894Z" fill="#04436F"/>
<path id="Vector_2" d="M13.5 5.39551H14.5V6.39551C14.5 6.67201 14.7235 6.89554 15 6.89554C15.2765 6.89554 15.5 6.67201 15.5 6.39551V5.39551H16.5C16.7765 5.39551 17 5.17201 17 4.89551C17 4.61901 16.7765 4.39551 16.5 4.39551H15.5V3.39551C15.5 3.11901 15.2765 2.89551 15 2.89551C14.7235 2.89551 14.5 3.11901 14.5 3.39551V4.39551H13.5C13.2235 4.39551 13 4.61901 13 4.89551C13 5.17201 13.2235 5.39551 13.5 5.39551Z" fill="#04436F"/>
</g>
<defs>
<clipPath id="clip0_1194_6497">
<rect width="30" height="30" fill="white" transform="translate(0 0.89502)"/>
</clipPath>
</defs>
</svg>
