<svg width="50" height="51" viewBox="0 0 50 51" fill="none" xmlns="http://www.w3.org/2000/svg">
<path d="M22.0101 28.2765V43.4275C22.0101 45.6467 20.4155 47.452 18.4555 47.452H10.1122C6.74944 47.452 4.04182 46.0053 2.28202 43.2688C0.789092 40.9474 0 37.6985 0 33.8731C0 27.8688 1.88507 21.0512 5.04264 15.6363C8.6867 9.387 13.45 5.9453 18.4555 5.9453C20.4155 5.9453 22.0101 7.7506 22.0101 9.96972V14.1055C22.0101 14.8445 21.4109 15.4438 20.6718 15.4438C19.9326 15.4438 19.3334 14.8445 19.3334 14.1055V9.96972C19.3334 9.19829 18.87 8.622 18.4555 8.622C13.0398 8.622 9.17614 13.8614 7.35491 16.9845C4.46929 21.9334 2.6767 28.4046 2.6767 33.8731C2.6767 37.184 3.31871 39.9323 4.5334 41.8213C5.79386 43.7814 7.67089 44.7754 10.1122 44.7754H18.4555C18.8698 44.7754 19.3334 44.199 19.3334 43.4277V28.2765C19.3334 27.5374 19.9326 26.9381 20.6718 26.9381C21.4109 26.9381 22.0101 27.5374 22.0101 28.2765ZM44.9575 15.6363C41.3134 9.387 36.5502 5.9453 31.5448 5.9453C29.5847 5.9453 27.9901 7.7506 27.9901 9.96972V14.1549C27.9901 14.8939 28.5895 15.4932 29.3285 15.4932C30.0675 15.4932 30.6669 14.8939 30.6669 14.1549V9.96972C30.6669 9.19829 31.1303 8.622 31.5448 8.622C36.9603 8.622 40.824 13.8614 42.6451 16.9845C45.5307 21.9332 47.3232 28.4044 47.3232 33.8729C47.3232 37.1839 46.6812 39.9323 45.4666 41.8211C44.206 43.7814 42.329 44.7754 39.8876 44.7754H31.5447C31.1302 44.7754 30.6667 44.199 30.6667 43.4277V28.0785C30.6667 27.3395 30.0674 26.7402 29.3284 26.7402C28.5893 26.7402 27.99 27.3395 27.99 28.0785V43.4275C27.99 45.6467 29.5845 47.452 31.5447 47.452H39.8876C43.2504 47.452 45.958 46.0053 47.7178 43.2687C49.2108 40.9472 49.9999 37.6982 49.9999 33.8728C50 27.8687 48.1149 21.0512 44.9575 15.6363ZM32.4934 31.8753C32.4934 32.6143 33.0927 33.2136 33.8318 33.2136C34.5708 33.2136 35.1701 32.6143 35.1701 31.8753V27.9727L38.694 29.6491C39.3612 29.9668 40.1599 29.6831 40.4775 29.0155C40.7951 28.3481 40.5114 27.5496 39.8439 27.232L34.6375 24.755L26.3384 15.8404V5.82565C26.3384 5.08661 25.739 4.4873 25 4.4873C24.2608 4.4873 23.6616 5.08661 23.6616 5.82565V15.8402L15.3632 24.7545L10.1559 27.2319C9.48851 27.5495 9.20478 28.3479 9.52237 29.0154C9.84009 29.6829 10.6384 29.9663 11.3059 29.6489L14.8297 27.9725V31.8752C14.8297 32.6142 15.4289 33.2135 16.1681 33.2135C16.9073 33.2135 17.5064 32.6142 17.5064 31.8752V26.3806L25 18.3309L32.4934 26.3803V31.8753Z" fill="#04436F"/>
</svg>
