<svg width="30" height="31" viewBox="0 0 30 31" fill="none" xmlns="http://www.w3.org/2000/svg">
<path d="M15.0002 4.52979C8.78695 4.52979 3.74996 9.52979 5.00015 15.7798C5.8871 20.2138 10.5487 24.3333 13.1827 26.3528C13.8834 26.89 14.2338 27.1587 14.7477 27.2263C14.894 27.2456 15.1063 27.2456 15.2527 27.2263C15.7665 27.1587 16.1168 26.8901 16.8176 26.3529C19.4517 24.3333 24.1135 20.2138 25.0001 15.7798C26.25 9.52979 21.2134 4.52979 15.0002 4.52979Z" stroke="#ECF2FF" stroke-width="1.45161" stroke-linejoin="round"/>
<path d="M18.75 14.7173C18.75 16.7883 17.0711 18.4673 15 18.4673C12.9289 18.4673 11.25 16.7883 11.25 14.7173C11.25 12.6462 12.9289 10.9673 15 10.9673C17.0711 10.9673 18.75 12.6462 18.75 14.7173Z" stroke="#ECF2FF" stroke-width="1.45161" stroke-linejoin="round"/>
</svg>
