<svg width="50" height="51" viewBox="0 0 50 51" fill="none" xmlns="http://www.w3.org/2000/svg">
<g id="Clip path group">
<mask id="mask0_1414_1264" style="mask-type:luminance" maskUnits="userSpaceOnUse" x="-1" y="0" width="51" height="51">
<g id="a">
<path id="Vector" d="M49.9995 0.339844H-0.000488281V50.3398H49.9995V0.339844Z" fill="white"/>
</g>
</mask>
<g mask="url(#mask0_1414_1264)">
<g id="Group">
<path id="Vector_2" d="M40.0301 6.92572C40.0301 7.67065 39.4262 8.27466 38.6812 8.27466C37.9363 8.27466 37.3324 7.67077 37.3324 6.92572C37.3324 6.18079 37.9363 5.57677 38.6812 5.57677C39.4262 5.57677 40.0301 6.18079 40.0301 6.92572ZM45.267 6.9256C45.267 10.1404 42.9518 12.8246 39.9011 13.3982V37.3211C39.9011 44.4996 34.0609 50.3398 26.8823 50.3398C19.704 50.3398 13.8641 44.4996 13.8641 37.3211V31.1175C9.99681 30.5276 7.02418 27.1792 7.02418 23.1496V9.25554C5.68707 8.75863 4.73193 7.46971 4.73193 5.96193V3.85195C4.73193 1.91534 6.30755 0.339844 8.24405 0.339844C10.1807 0.339844 11.7563 1.91534 11.7563 3.85195V5.96193C11.7563 7.46984 10.8011 8.75876 9.46404 9.25554V23.1497C9.46404 26.2486 11.9851 28.7697 15.0839 28.7697C18.1827 28.7697 20.7038 26.2486 20.7038 23.1497V9.25554C19.3668 8.75876 18.4117 7.46984 18.4117 5.96193V3.85195C18.4118 1.91534 19.9873 0.339844 21.9239 0.339844C23.8605 0.339844 25.4362 1.91534 25.4362 3.85195V5.96193C25.4362 7.46984 24.481 8.75876 23.1439 9.25554V23.1497C23.1439 27.1792 20.1713 30.5278 16.304 31.1176V37.3213C16.304 43.1544 21.0494 47.8999 26.8823 47.8999C32.7155 47.8999 37.4611 43.1544 37.4611 37.3213V13.3983C34.4104 12.8247 32.0952 10.1405 32.0952 6.92572C32.0952 3.29417 35.0497 0.339844 38.6811 0.339844C42.3125 0.339844 45.267 3.29417 45.267 6.9256ZM20.8518 5.96193C20.8518 6.55313 21.3327 7.03405 21.9239 7.03405C22.5151 7.03405 22.9962 6.55313 22.9962 5.96193V3.85195C22.9962 3.26074 22.5153 2.77982 21.9239 2.77982C21.3327 2.77982 20.8518 3.26074 20.8518 3.85195V5.96193ZM9.31629 3.85195C9.31629 3.26074 8.83537 2.77982 8.24405 2.77982C7.65284 2.77982 7.17192 3.26074 7.17192 3.85195V5.96193C7.17192 6.55313 7.65284 7.03405 8.24405 7.03405C8.83525 7.03405 9.31629 6.55313 9.31629 5.96193V3.85195ZM42.827 6.9256C42.827 4.63958 40.9671 2.77982 38.6811 2.77982C36.3951 2.77982 34.5352 4.6397 34.5352 6.9256C34.5352 9.20552 36.3852 11.0616 38.6628 11.0715C38.6689 11.0715 38.675 11.0713 38.6811 11.0713C38.6872 11.0713 38.6933 11.0713 38.6994 11.0715C40.977 11.0616 42.827 9.20564 42.827 6.9256Z" fill="#04436F"/>
</g>
</g>
</g>
</svg>
