<svg width="30" height="31" viewBox="0 0 30 31" fill="none" xmlns="http://www.w3.org/2000/svg">
<path d="M3.77314 9.41247L4.71062 9.40715C4.71045 9.37683 4.7088 9.34653 4.7057 9.31636L3.77314 9.41247ZM21.3742 27.0067L21.4703 26.0741C21.4401 26.071 21.4098 26.0694 21.3795 26.0692L21.3742 27.0067ZM8.81946 13.2798L8.67147 12.3541C8.37158 12.402 8.11348 12.5923 7.97895 12.8646C7.84442 13.1369 7.85013 13.4574 7.99427 13.7248L8.81946 13.2798ZM17.5053 21.9623L17.0607 22.7877C17.328 22.9317 17.6485 22.9373 17.9207 22.8028C18.1929 22.6683 18.3831 22.4102 18.4311 22.1104L17.5053 21.9623ZM5.69416 6.53232C7.03662 5.19039 9.21332 5.19039 10.5558 6.53232L11.8814 5.20624C9.80671 3.13242 6.44322 3.13242 4.36859 5.20624L5.69416 6.53232ZM10.5558 6.53232C11.8981 7.87405 11.8981 10.0493 10.5558 11.391L11.8814 12.7171C13.9562 10.6431 13.9562 7.28026 11.8814 5.20624L10.5558 6.53232ZM19.3944 20.2272C20.7368 18.8853 22.9135 18.8853 24.256 20.2272L25.5816 18.9011C23.5069 16.8273 20.1434 16.8273 18.0688 18.9011L19.3944 20.2272ZM24.256 20.2272C25.5983 21.5689 25.5983 23.7441 24.256 25.0859L25.5816 26.412C27.6564 24.3379 27.6564 20.9751 25.5816 18.9011L24.256 20.2272ZM10.1136 20.6682C6.58128 17.1373 4.73041 12.8941 4.71062 9.40715L2.83565 9.4178C2.85886 13.5064 4.99111 18.1988 8.78801 21.9943L10.1136 20.6682ZM4.7057 9.31636C4.60309 8.32086 4.93302 7.29316 5.69416 6.53232L4.36859 5.20624C3.19147 6.38291 2.68257 7.97556 2.84058 9.50859L4.7057 9.31636ZM24.256 25.0859C23.4948 25.8467 22.4665 26.1767 21.4703 26.0741L21.2782 27.9392C22.8114 28.0971 24.4045 27.5886 25.5816 26.412L24.256 25.0859ZM21.3795 26.0692C17.8908 26.0494 13.6459 24.1991 10.1136 20.6682L8.78801 21.9943C12.585 25.7897 17.279 27.921 21.3689 27.9442L21.3795 26.0692ZM10.5558 11.391C10.023 11.9236 9.36138 12.2438 8.67147 12.3541L8.96745 14.2056C10.0342 14.0351 11.06 13.5381 11.8814 12.7171L10.5558 11.391ZM13.2072 17.5758C11.7223 16.0914 10.5286 14.4742 9.64466 12.8349L7.99427 13.7248C8.96726 15.5294 10.2718 17.2927 11.8816 18.9019L13.2072 17.5758ZM18.4311 22.1104C18.5414 21.421 18.8616 20.7597 19.3944 20.2272L18.0688 18.9011C17.2475 19.7221 16.7502 20.7477 16.5796 21.8142L18.4311 22.1104ZM17.95 21.137C16.31 20.2534 14.6921 19.0602 13.2072 17.5758L11.8816 18.9019C13.4915 20.5111 15.2554 21.8151 17.0607 22.7877L17.95 21.137Z" fill="#FAFCFF"/>
</svg>
