<svg width="30" height="31" viewBox="0 0 30 31" fill="none" xmlns="http://www.w3.org/2000/svg">
<g id="Component 1">
<path id="Vector" d="M11.25 6.73535C10.0887 6.73535 9.50812 6.73535 9.02228 6.8123C6.34795 7.23587 4.25052 9.33331 3.82695 12.0076C3.75 12.4935 3.75 13.0741 3.75 14.2354V16.7353C3.75 20.2357 3.75 21.9859 4.43121 23.3228C5.03042 24.4989 5.98655 25.4549 7.16256 26.0542C8.49951 26.7354 10.2497 26.7354 13.75 26.7354H16.25C19.7503 26.7354 21.5005 26.7354 22.8374 26.0542C24.0135 25.4549 24.9696 24.4989 25.5688 23.3228C26.25 21.9859 26.25 20.2357 26.25 16.7353V14.2354C26.25 13.0741 26.25 12.4935 26.173 12.0076C25.7495 9.33331 23.652 7.23587 20.9777 6.8123C20.4919 6.73535 19.9113 6.73535 18.75 6.73535M11.25 6.73535V8.61035M11.25 6.73535V4.23535M11.25 6.73535H18.75M18.75 6.73535V4.23535M18.75 6.73535V8.61035" stroke="#04436F" stroke-width="1.875" stroke-linecap="round" stroke-linejoin="round"/>
<path id="Vector_2" d="M10.625 17.3598L12.4528 19.5358C12.7818 19.9275 12.9463 20.1234 13.1584 20.1675C13.2266 20.1817 13.2967 20.1843 13.3657 20.1754C13.5805 20.1477 13.7595 19.965 14.1177 19.5995L19.3751 14.2349" stroke="#04436F" stroke-width="1.875" stroke-linecap="round" stroke-linejoin="round"/>
</g>
</svg>
