<svg width="50" height="51" viewBox="0 0 50 51" fill="none" xmlns="http://www.w3.org/2000/svg">
<mask id="mask0_1414_1112" style="mask-type:luminance" maskUnits="userSpaceOnUse" x="0" y="0" width="50" height="51">
<path d="M50 0.339844H0V50.3398H50V0.339844Z" fill="white"/>
</mask>
<g mask="url(#mask0_1414_1112)">
<path d="M27.994 43.8295C26.9352 44.7914 25.7586 45.8196 25.0022 46.0508C24.1089 45.7829 22.6513 44.4295 20.5192 42.45C20.1572 42.1138 19.7727 41.7569 19.3635 41.3795C11.4412 34.073 2.94141 23.3817 2.84472 15.2869C2.81159 12.5176 3.73825 10.2595 5.67746 8.38325C8.1995 5.94339 11.4901 4.59968 14.9434 4.59968C18.3358 4.59968 21.5619 5.88196 24.028 8.21034C24.5758 8.72764 25.4322 8.72764 25.9802 8.21034C28.4467 5.88196 31.6733 4.59968 35.0657 4.59968C38.5188 4.59968 41.8095 5.94339 44.3316 8.38311C48.3239 12.2457 48.1021 18.0825 43.6725 25.7314C43.2789 26.4109 43.5109 27.2809 44.1905 27.6744C44.8699 28.0682 45.74 27.8363 46.1336 27.1566C52.5716 16.0394 49.7825 9.6998 46.309 6.33925C43.2533 3.38366 39.2605 1.75586 35.0654 1.75586C31.3781 1.75586 27.8518 3.00302 25.004 5.29158C22.1566 3.00287 18.6305 1.75586 14.9432 1.75586C10.7483 1.75586 6.75541 3.38366 3.7 6.33939C1.20327 8.75508 -0.0411911 11.7767 0.0010397 15.3207C0.136406 26.6453 13.3797 39.7294 17.4354 43.47C17.8422 43.8453 18.2243 44.1999 18.5842 44.5339C21.5564 47.2937 23.0484 48.6788 24.8187 48.9116C24.8801 48.9197 24.9421 48.9237 25.004 48.9237C25.0658 48.9237 25.1277 48.9197 25.1891 48.9116C26.6123 48.7247 27.8941 47.7622 29.9061 45.9344C30.4873 45.4063 30.5305 44.507 30.0024 43.9258C29.4744 43.3446 28.5752 43.3016 27.994 43.8295Z" fill="#04436F"/>
<path d="M45.1507 29.9981H40.584V25.4317C40.584 24.6466 39.9474 24.0098 39.1621 24.0098H33.4438C32.6585 24.0098 32.0219 24.6466 32.0219 25.4317V29.9981H27.4552C26.6698 29.9981 26.0332 30.6348 26.0332 31.42V37.1388C26.0332 37.924 26.6698 38.5607 27.4552 38.5607H32.0219V43.127C32.0219 43.9122 32.6585 44.5489 33.4438 44.5489H39.1621C39.9474 44.5489 40.584 43.9122 40.584 43.127V38.5607H45.1507C45.936 38.5607 46.5726 37.924 46.5726 37.1388V31.42C46.5726 30.6347 45.936 29.9981 45.1507 29.9981ZM43.7288 35.7169H39.1621C38.3767 35.7169 37.7401 36.3536 37.7401 37.1388V41.7051H34.8657V37.1388C34.8657 36.3536 34.2292 35.7169 33.4438 35.7169H28.8771V32.8419H33.4438C34.2292 32.8419 34.8657 32.2052 34.8657 31.42V26.8536H37.7401V31.42C37.7401 32.2052 38.3767 32.8419 39.1621 32.8419H43.7288V35.7169Z" fill="#04436F"/>
</g>
</svg>
