<?xml version="1.0" encoding="utf-8"?>
<svg viewBox="271.5248718261719 1260.0936279296875 200.2999267578125 261.4000244140625" width="200.2999267578125" height="261.4000244140625" xmlns="http://www.w3.org/2000/svg"><g transform="matrix(1, 0, 0, 1, 19.02487564086914, 33.29353332519531)"><path fill="#04436F" d="M317.6,1285.2c11.2-4.5,19.9-14.1,24.4-23.9c0.6-1.3,1.1-2.6,1.6-3.9c0.2-0.6,0.4-1.3,0.6-1.9&#10;&#9;&#9;&#9;&#9;c2.5-9,1.1-17.2-5.5-20.7c-2-1.1-3.8-1.7-5.4-2c-0.7-0.1-1.4-0.2-2.1-0.2c0,0-0.1,0-0.1,0c-2.2-0.1-4.1,0.5-5.8,1.4&#10;&#9;&#9;&#9;&#9;c-0.3,0.1-0.5,0.3-0.8,0.5c-4.9,3.1-6.9,8.9-6.9,8.9l0,0c0,0-5.8-16.6-21-8.5C281.3,1242.9,293.6,1275.5,317.6,1285.2z" transform="matrix(1, 0, 0, 1, 0, 0)"/><path fill="#04436F" d="M433.9,1433.3v-50.8c0-17.8-14.5-32.3-32.3-32.3c-17.8,0-32.3,14.5-32.3,32.3v73.4c0,13.3-10.8,24-24,24&#10;&#9;&#9;&#9;&#9;s-24-10.8-24-24v-83.4H338c24.7,0,44.9-18.5,44.9-41.3v-57c0-9.4-6.5-17.3-15.2-19.5c-1.6-3.6-5.3-6.1-9.5-6.1&#10;&#9;&#9;&#9;&#9;c-5.7,0-10.4,4.7-10.4,10.4c0,5.7,4.7,10.4,10.4,10.4c4.2,0,7.7-2.4,9.4-6c4.2,1.9,7.1,6,7.1,10.9v57c0,18.2-16.4,33.1-36.6,33.1&#10;&#9;&#9;&#9;&#9;h-40.8c-20.2,0-36.6-14.8-36.6-33.1v-57c0-4.8,2.9-9,7.1-10.9c1.7,3.5,5.2,6,9.4,6c5.7,0,10.4-4.7,10.4-10.4&#10;&#9;&#9;&#9;&#9;c0-5.7-4.7-10.4-10.4-10.4c-4.2,0-7.8,2.5-9.5,6.1c-8.7,2.2-15.2,10.1-15.2,19.5v57c0,22.8,20.1,41.3,44.9,41.3H313v83.4&#10;&#9;&#9;&#9;&#9;c0,17.8,14.5,32.3,32.3,32.3s32.3-14.5,32.3-32.3v-73.4c0-13.3,10.8-24,24-24c13.3,0,24,10.8,24,24v50.8&#10;&#9;&#9;&#9;&#9;c-10.8,1.9-18.9,11.4-18.9,22.7c0,12.7,10.3,23,23,23c12.7,0,23-10.3,23-23C452.8,1444.6,444.6,1435.2,433.9,1433.3z" transform="matrix(1, 0, 0, 1, 0, 0)"/></g></svg>