<svg width="50" height="51" viewBox="0 0 50 51" fill="none" xmlns="http://www.w3.org/2000/svg">
<g id="Clip path group">
<mask id="mask0_1414_1353" style="mask-type:luminance" maskUnits="userSpaceOnUse" x="0" y="0" width="50" height="51">
<g id="a">
<path id="Vector" d="M50 0.339844H0V50.3398H50V0.339844Z" fill="white"/>
</g>
</mask>
<g mask="url(#mask0_1414_1353)">
<g id="Group">
<path id="Vector_2" d="M12.8221 36.2868C12.8221 39.8508 15.7216 42.7505 19.2856 42.7505C20.0129 42.7505 20.6025 43.3402 20.6025 44.0674C20.6025 44.7945 20.0129 45.3842 19.2856 45.3842C14.2693 45.3842 10.1883 41.3032 10.1883 36.2868C10.1883 35.5597 10.7779 34.97 11.5052 34.97C12.2325 34.97 12.8221 35.5595 12.8221 36.2868ZM44.5847 48.3546L35.8784 33.5601C35.6418 33.1581 35.2101 32.9111 34.7435 32.9111H20.6023V19.5619C20.6023 18.8347 20.0128 18.245 19.2855 18.245C18.5581 18.245 17.9686 18.8347 17.9686 19.5619V34.228C17.9686 34.9552 18.5581 35.5449 19.2855 35.5449H33.9904L42.3149 49.6906C42.5603 50.1076 42.9997 50.3398 43.4512 50.3398C43.678 50.3398 43.9081 50.2811 44.1179 50.1575C44.7446 49.7887 44.9537 48.9816 44.5847 48.3546ZM11.7605 7.90809C11.7605 3.73489 15.1556 0.339844 19.3285 0.339844C23.5017 0.339844 26.897 3.73489 26.897 7.90809C26.897 12.0812 23.5019 15.4763 19.3285 15.4763C15.1556 15.4762 11.7605 12.0811 11.7605 7.90809ZM14.3943 7.90809C14.3943 10.6289 16.6077 12.8425 19.3284 12.8425C22.0495 12.8425 24.2631 10.6289 24.2631 7.90809C24.2631 5.18728 22.0495 2.9736 19.3285 2.9736C16.6078 2.9736 14.3943 5.18728 14.3943 7.90809ZM31.69 39.4745C31.0087 39.2223 30.2502 39.5701 29.9976 40.2521C28.3465 44.7103 24.0415 47.7058 19.2855 47.7058C12.9892 47.7058 7.86681 42.5834 7.86681 36.2868C7.86681 32.115 10.1412 28.2759 13.8026 26.2676C14.4403 25.9178 14.6737 25.1174 14.3238 24.4797C13.9741 23.842 13.1736 23.6088 12.5359 23.9585C8.03129 26.4293 5.23291 31.1532 5.23291 36.2868C5.23291 44.0355 11.5368 50.3395 19.2853 50.3395C25.1379 50.3395 30.4354 46.6533 32.4674 41.1668C32.7202 40.4848 32.3721 39.7272 31.69 39.4745Z" fill="#04436F"/>
</g>
</g>
</g>
</svg>
